Coordinates
version=1
nRows=17
nColumns=36
inDegrees=yes

Units are S.I. units (second, meters, Newtons, ...)
If the header above contains a line with 'inDegrees', this indicates whether rotational values are in degrees (yes) or radians (no).

endheader
time	pelvis_tilt	pelvis_list	pelvis_rotation	pelvis_tx	pelvis_ty	pelvis_tz	hip_flexion_r	hip_adduction_r	hip_rotation_r	knee_angle_r	knee_angle_r_beta	ankle_angle_r	subtalar_angle_r	mtp_angle_r	hip_flexion_l	hip_adduction_l	hip_rotation_l	knee_angle_l	knee_angle_l_beta	ankle_angle_l	subtalar_angle_l	mtp_angle_l	lumbar_extension	lumbar_bending	lumbar_rotation	arm_flex_r	arm_add_r	arm_rot_r	elbow_flex_r	pro_sup_r	arm_flex_l	arm_add_l	arm_rot_l	elbow_flex_l	pro_sup_l
      0.00000000	      1.90074272	      1.45929497	     -3.79471323	      0.26656017	      1.29586568	     -0.57366733	     -4.46809538	     -2.63843602	      3.62975061	      3.86445527	      0.06744747	      7.41402450	     -6.10229763	     -7.20137539	     -6.43926237	      0.35601640	      0.83051047	      3.57634924	      0.06241907	     14.29161461	     -4.33644080	     -7.20137539	     -2.02512113	     -1.65796681	      4.70564665	      5.32149656	     -8.30269880	      9.73802046	     17.52745081	     89.76722636	      3.67018942	     -9.39825624	      6.99970577	     13.19673381	     93.85587032
      0.01666670	      1.48946398	      1.56130074	     -3.95720871	      0.25944030	      1.29439490	     -0.57909533	     -4.17877101	     -3.00947662	      3.85695914	      3.16684917	      0.05527194	      8.06520392	     -5.74703415	     -7.22131199	     -6.28604850	      0.61203068	     -0.39322120	      2.15416085	      0.03759720	     14.09652320	     -3.97009555	     -7.22131199	     -1.74065970	     -1.42697011	      5.56348558	      6.37471068	     -8.33412457	     10.42903801	     15.44462941	     90.86584916	      4.91814155	     -8.60014798	      6.28769082	     11.03389274	     94.14158343
      0.03333330	      2.16867538	      1.46029278	     -4.10215844	      0.25738215	      1.29569310	     -0.57933067	     -4.76653057	     -2.97598746	      3.72486962	      3.58279891	      0.06253164	      8.17590185	     -5.74556362	     -7.25441305	     -6.94563922	      0.66960370	     -0.98441483	      2.02971368	      0.03542519	     13.88321811	     -4.35788936	     -7.25441305	     -2.79076364	     -1.23404610	      5.75927101	      7.22471163	     -8.54408402	     11.50216426	     14.64384351	     91.38664066	      6.34240887	     -8.12817539	      5.96911936	      9.32418774	     94.00758626
      0.05000000	      2.87392985	      1.40122540	     -4.05211939	      0.25559614	      1.29619018	     -0.57990000	     -5.37168567	     -3.04935666	      2.85981390	      3.81083248	      0.06651157	      8.13945420	     -5.72759394	     -7.28325308	     -7.66199522	      0.76640056	     -1.66866363	      1.97552154	      0.03447936	     13.50802398	     -4.41071477	     -7.28325308	     -4.15486079	     -1.16040976	      5.97586929	      7.45184368	     -8.82684510	     11.85380843	     15.75572071	     90.05491325	      6.61773590	     -7.90427402	      5.84517168	     10.53515520	     92.44428586
      0.06666670	      3.25343760	      1.51583093	     -4.29536279	      0.25366349	      1.29341878	     -0.58018115	     -5.51816093	     -3.25651931	      2.66328891	      4.25530217	      0.07426903	      8.52148185	     -5.85181411	     -7.36512850	     -7.97133401	      1.03043039	     -2.02935520	      2.14770530	      0.03748453	     13.32498771	     -4.77132474	     -7.36512850	     -4.53050660	     -1.24221911	      6.32222035	      8.23863778	     -8.72830953	     11.21813894	     14.78626047	     95.20372425	      8.00784201	     -7.19150938	      0.76183079	      8.00178521	    100.31490766
      0.08333330	      3.44434027	      1.58201071	     -4.28853771	      0.25283502	      1.29413722	     -0.58028921	     -5.55502760	     -3.35844144	      2.55459664	      4.53802070	      0.07920340	      8.50539047	     -6.13669119	     -7.42943870	     -8.09414166	      1.11276066	     -2.22518955	      2.26603009	      0.03954969	     13.06640019	     -4.79650316	     -7.42943870	     -4.89224311	     -1.34337184	      6.63245483	      8.12165960	     -8.82827970	     11.58785364	     14.96044189	     94.57110592	      8.62615089	     -7.00850603	      0.68570892	      7.57934165	    101.03011044
      0.10000000	      3.47436641	      1.66002907	     -4.32999053	      0.25235044	      1.29442330	     -0.58009694	     -5.52533672	     -3.46927803	      2.47811699	      4.70949988	      0.08219628	      8.33253545	     -6.58088738	     -7.45947199	     -8.09766299	      1.18704675	     -2.45900765	      2.32357588	      0.04055405	     12.92122347	     -4.84008378	     -7.45947199	     -5.04192849	     -1.46120736	      6.70911397	      8.08060560	     -8.82630076	     12.25952043	     14.95920991	     93.57075511	      8.83336090	     -6.94952492	      0.62944054	      7.55035501	    101.02283903
      0.11666670	      3.42406124	      1.67885718	     -4.23181513	      0.25257198	      1.30180449	     -0.57985858	     -5.46157729	     -3.47333340	      2.32240708	      4.84168830	      0.08450340	      8.31030541	     -6.65951811	     -7.45964044	     -8.03813220	      1.15824323	     -2.63423001	      2.35706838	      0.04113860	     12.80440803	     -4.84265012	     -7.45964044	     -5.10552786	     -1.51391662	      6.69958276	      7.96092449	     -8.76428261	     12.29639552	     14.98443842	     93.55764149	      8.77693341	     -6.91901742	      0.64169334	      7.66511624	    100.98743506
      0.13333330	      3.25320990	      1.74699576	     -4.30376268	      0.25241712	      1.29791763	     -0.57977907	     -5.28292734	     -3.51318189	      2.51931223	      4.87830109	      0.08514242	      7.99035357	     -7.25237083	     -7.46113796	     -7.93467835	      1.21127346	     -2.92168315	      2.23581101	      0.03902226	     12.57107576	     -4.73039992	     -7.46113796	     -4.94591758	     -1.64984884	      6.74529593	      7.84883182	     -8.75808659	     13.45166332	     14.93122465	     92.71981659	      8.66993542	     -7.05830478	      1.38580097	      7.71988890	    100.54079729
      0.15000000	      3.23887593	      1.73873205	     -4.39301493	      0.25266942	      1.30119767	     -0.57937755	     -5.30993647	     -3.49161572	      2.48088969	      4.90558023	      0.08561853	      7.95156176	     -7.37443990	     -7.46883069	     -8.01037948	      1.20852413	     -3.30150089	      2.12153562	      0.03702778	     12.51285847	     -4.63696068	     -7.46883069	     -5.00829847	     -1.70481045	      6.67071284	      7.83100790	     -8.77419790	     14.87375982	     15.12501119	     89.59268032	      8.49735090	     -7.12408402	      2.48088243	      8.15631415	     97.18505923
      0.16666670	      3.03694955	      1.76865410	     -4.36128736	      0.25253314	      1.29728363	     -0.57954680	     -5.14349371	     -3.49079035	      2.40431103	      4.92528737	      0.08596248	      7.82830875	     -7.47182126	     -7.47042349	     -7.91490128	      1.24897696	     -3.21962627	      1.96727963	      0.03433551	     12.28434796	     -4.86894105	     -7.47042349	     -4.78732166	     -1.72119951	      6.61298252	      7.71693568	     -8.83231675	     15.82250076	     15.22812374	     90.12577996	      8.55669032	     -7.26113616	      3.33929184	      8.04245055	     98.53837216
      0.18333330	      2.93383570	      1.78141210	     -4.34692943	      0.25270981	      1.29703070	     -0.57942157	     -5.07649080	     -3.45528583	      2.33200330	      4.86344214	      0.08488308	      7.72054968	     -7.55770733	     -7.47171573	     -7.87001312	      1.24888251	     -3.39402185	      1.83870066	      0.03209138	     12.26260112	     -4.70026483	     -7.47171573	     -4.69739197	     -1.75381663	      6.48752492	      7.70644179	     -8.69142433	     15.72078053	     15.31408716	     90.71335933	      8.43541738	     -7.40609040	      3.14042066	      8.37935460	     99.31458551
      0.20000000	      2.82258527	      1.80603629	     -4.42710896	      0.25275332	      1.29635188	     -0.57918947	     -4.93463005	     -3.44834042	      2.46129776	      4.82517894	      0.08421526	      7.63766254	     -7.74651204	     -7.49103928	     -7.82718054	      1.28087587	     -3.65239143	      1.69069349	      0.02950817	     12.36206350	     -4.49449329	     -7.49103928	     -4.63604072	     -1.79197112	      6.59815592	      7.50504708	     -8.77804424	     15.89341134	     15.89431323	     90.40287317	      8.37668949	     -7.43608130	      2.51886425	      8.61570956	    101.18198558
      0.21666670	      2.72470666	      1.82884789	     -4.42672024	      0.25274386	      1.29246534	     -0.57906901	     -4.86411290	     -3.42799349	      2.52459325	      4.75770272	      0.08303758	      7.51313688	     -7.86314730	     -7.49112781	     -7.75441237	      1.29009429	     -3.93719516	      1.60948139	      0.02809075	     12.46012269	     -4.17573035	     -7.49112781	     -4.54989905	     -1.84503399	      6.58192222	      7.45019918	     -8.77207701	     16.37869386	     16.12092279	     89.51581426	      8.32696457	     -7.52740646	      2.70061018	      8.76258039	    100.56012029
      0.23333330	      2.65936530	      1.84716828	     -4.41444219	      0.25297972	      1.29220281	     -0.57892376	     -4.78535973	     -3.40752639	      2.56687190	      4.72891596	      0.08253515	      7.51813878	     -7.74660842	     -7.49188295	     -7.74860015	      1.32169047	     -3.80162062	      1.49047909	      0.02601377	     12.29157153	     -4.52577317	     -7.49188295	     -4.53468812	     -1.87366317	      6.51499255	      7.42399307	     -8.82096371	     17.12541803	     16.42294461	     89.53629721	      7.99512418	     -7.65095482	      3.49291829	      9.34477864	     99.59141156
      0.25000000	      2.59935644	      1.83818691	     -4.43052279	      0.24446388	      1.29620142	     -0.57563816	     -4.67713027	     -3.34422739	      2.57590380	      4.71377119	      0.08227083	      7.49310949	     -7.73220778	     -7.49190148	     -7.65296080	      1.28028180	     -3.87237800	      1.48528368	      0.02592309	     12.30629944	     -4.55962340	     -7.49190148	     -4.58523533	     -1.94454608	      6.51622391	      7.58116070	     -8.72823402	     17.14065542	     16.50284697	     89.54221748	      8.24365419	     -7.72621208	      3.49102213	      9.43960438	     99.59829306
      0.26666670	      2.59107598	      1.86442706	     -4.54134148	      0.24441590	      1.29602377	     -0.57545490	     -4.56541706	     -3.33256033	      2.71606718	      4.84320861	      0.08452994	      7.45012274	     -7.74138084	     -7.49323570	     -7.58632946	      1.30642576	     -4.02183534	      1.53318080	      0.02675905	     12.26517484	     -4.63638385	     -7.49323570	     -4.73591979	     -2.04521248	      6.54495928	      7.78334203	     -8.75556984	     18.08668840	     16.72563216	     88.31070211	      8.34590147	     -7.88067200	      4.13543638	      9.74563536	     98.14305641
